<svg xmlns="http://www.w3.org/2000/svg" width="70.734" height="60.785" viewBox="0 0 70.734 60.785"><defs><style>.a{fill:#fff;}</style></defs><g transform="translate(0 -0.001)"><path class="a" d="M247.382,202.751A1.382,1.382,0,1,0,246,201.37,1.382,1.382,0,0,0,247.382,202.751Zm0,0" transform="translate(-212.015 -172.359)"/><path class="a" d="M65.208,19.34h-8.17L44.47,2.05a4.145,4.145,0,0,0-7.2,4.107,1.407,1.407,0,0,0,.106.163l9.857,13.02H23.5L33.357,6.32a1.481,1.481,0,0,0,.106-.163,4.145,4.145,0,0,0-7.2-4.108L13.7,19.34H5.526A5.526,5.526,0,0,0,3.757,30.1a1.375,1.375,0,0,0,.845.29,1.338,1.338,0,0,1,.186.012,1.378,1.378,0,0,1,1.174,1.121l4.7,25.857a4.143,4.143,0,0,0,4.078,3.4H55.994a4.143,4.143,0,0,0,4.078-3.4l4.7-25.856A1.378,1.378,0,0,1,65.948,30.4a1.283,1.283,0,0,1,.183-.012,1.373,1.373,0,0,0,.849-.294A5.525,5.525,0,0,0,65.208,19.34Zm-25.56-14.6A1.382,1.382,0,0,1,42.1,3.47a1.3,1.3,0,0,0,.091.142L53.622,19.34H50.7Zm-11.1-1.13a1.483,1.483,0,0,0,.09-.141,1.382,1.382,0,0,1,2.452,1.271L20.035,19.34H17.112ZM65.208,27.629H40.893a1.375,1.375,0,1,0,0,2.749h21.33a4.2,4.2,0,0,0-.169.64l-4.7,25.87a1.381,1.381,0,0,1-1.359,1.134H14.74a1.381,1.381,0,0,1-1.36-1.134L8.68,31.032a4.171,4.171,0,0,0-.169-.639h21.33a1.382,1.382,0,0,0,0-2.763H5.526a2.763,2.763,0,1,1,0-5.526H65.208a2.763,2.763,0,0,1,0,5.526Zm0,0" transform="translate(0 0)"/><path class="a" d="M230.145,249.988A4.149,4.149,0,0,0,226,254.133v11.052a4.145,4.145,0,0,0,8.289,0V254.133A4.144,4.144,0,0,0,230.145,249.988Zm1.382,15.2a1.382,1.382,0,0,1-2.763,0V254.133a1.382,1.382,0,0,1,2.763,0Zm0,0" transform="translate(-194.778 -215.452)"/><path class="a" d="M330.145,269.329a4.149,4.149,0,0,0,4.145-4.145V254.133a4.145,4.145,0,1,0-8.289,0v11.052A4.149,4.149,0,0,0,330.145,269.329Zm-1.382-15.2a1.382,1.382,0,1,1,2.763,0v11.052a1.382,1.382,0,0,1-2.763,0Zm0,0" transform="translate(-280.963 -215.452)"/><path class="a" d="M130.145,249.988A4.149,4.149,0,0,0,126,254.133v11.052a4.145,4.145,0,0,0,8.289,0V254.133A4.144,4.144,0,0,0,130.145,249.988Zm1.382,15.2a1.382,1.382,0,0,1-2.763,0V254.133a1.382,1.382,0,0,1,2.763,0Zm0,0" transform="translate(-108.593 -215.452)"/></g></svg>